#!OML:ASF X:\für Bonn\!DataBase\2005_08_11_Bastian_Final\c3d\Bastian.ASF
:FULLY-SPECIFIED
:DEGREES
64
root -21.8367 17.6102 -0.170311 151.074 -72.6767 -156.6
lowerback 3.87564 3.26341 8.12273
upperback 3.44758 4.4731 -0.479069
thorax 2.08418 2.39607 -5.10411
lowerneck -13.055 -3.57196 1.8792
upperneck 0.374784 -5.26864 2.68863
head 2.39902 -2.56718 0.220696
rclavicle 7.7526e-015 -7.15625e-015
rhumerus 55.9702 10.1573 -45.9614
rradius 54.3729
rwrist -1.47356
rhand -17.9554 0.657145
rfingers 7.12502
rthumb 8.3134 -29.1593
lclavicle 7.7526e-015 -7.15625e-015
lhumerus -23.4057 -16.3357 89.1979
lradius 20.5605
lwrist 17.3527
lhand -11.3396 -8.91493
lfingers 7.12502
lthumb 14.6934 20.5444
rfemur -0.975093 7.07586 25.3317
rtibia 27.9227
rfoot -12.3939 -7.58101
rtoes -11.5698
lfemur 2.80635 5.74456 -13.3785
ltibia 23.7
lfoot -13.7468 3.75667
ltoes -11.0725
65
root -21.8475 17.61 -0.16542 150.868 -72.7809 -156.371
lowerback 3.8931 3.38732 8.20876
upperback 3.41217 4.64707 -0.618666
thorax 2.08372 2.48731 -5.2991
lowerneck -13.1673 -3.7288 1.88234
upperneck 0.426803 -5.49161 2.85329
head 2.44337 -2.6708 0.256277
rclavicle -2.27608e-014 -1.82882e-014
rhumerus 57.1663 9.50633 -45.3346
rradius 52.4689
rwrist -1.34843
rhand -18.3699 0.894272
rfingers 7.12502
rthumb 7.91329 -28.9376
lclavicle -2.27608e-014 -1.82882e-014
lhumerus -23.2008 -16.309 89.0204
lradius 19.9178
lwrist 17.3602
lhand -11.2803 -8.76002
lfingers 7.12502
lthumb 14.7505 20.6951
rfemur -0.955104 7.01449 25.3213
rtibia 27.9282
rfoot -12.4064 -7.6166
rtoes -11.5653
lfemur 2.78893 5.71082 -13.3845
ltibia 23.7265
lfoot -13.7711 3.69582
ltoes -11.2079
66
root -21.8573 17.609 -0.159605 150.559 -72.9004 -156.046
lowerback 3.91989 3.49167 8.30933
upperback 3.38357 4.79514 -0.739893
thorax 2.08221 2.56556 -5.4836
lowerneck -13.2283 -3.876 1.84577
upperneck 0.431813 -5.69348 3.02578
head 2.46419 -2.76527 0.303999
rclavicle 6.51517e-014 -9.54166e-015
rhumerus 58.3586 8.95194 -44.5858
rradius 50.5775
rwrist -1.52045
rhand -18.7126 0.999847
rfingers 7.12502
rthumb 7.58252 -28.8442
lclavicle 6.51517e-014 -9.54166e-015
lhumerus -23.0104 -16.2105 88.8554
lradius 19.2793
lwrist 17.2456
lhand -11.272 -8.57029
lfingers 7.12502
lthumb 14.7585 20.8843
rfemur -0.932527 6.86429 25.3188
rtibia 27.926
rfoot -12.4217 -7.62849
rtoes -11.7325
lfemur 2.76195 5.73928 -13.355
ltibia 23.767
lfoot -13.7468 3.55488
ltoes -11.3447
67
root -21.8677 17.6086 -0.154332 150.343 -73.054 -155.821
lowerback 3.93924 3.59128 8.35201
upperback 3.35884 4.93466 -0.867234
thorax 2.08373 2.63857 -5.64171
lowerneck -13.2677 -4.03036 1.77414
upperneck 0.416085 -5.90036 3.23558
head 2.47711 -2.8618 0.370001
rclavicle -2.99171e-014 7.95139e-016
rhumerus 59.4768 8.43101 -43.7614
rradius 48.7756
rwrist -1.84512
rhand -18.7023 0.892593
rfingers 7.12502
rthumb 7.59249 -28.9511
lclavicle -2.99171e-014 7.95139e-016
lhumerus -22.8277 -16.0625 88.6835
lradius 18.644
lwrist 17.0522
lhand -11.2783 -8.30345
lfingers 7.12502
lthumb 14.7524 21.1516
rfemur -0.894929 6.78318 25.2829
rtibia 27.9292
rfoot -12.4338 -7.69948
rtoes -11.7428
lfemur 2.74587 5.69854 -13.3842
ltibia 23.7996
lfoot -13.7634 3.46142
ltoes -11.3994
68
root -21.8777 17.608 -0.149443 150.007 -73.1833 -155.454
lowerback 3.95221 3.69941 8.4376
upperback 3.32076 5.08672 -0.98368
thorax 2.0809 2.71812 -5.81236
lowerneck -13.3508 -4.18726 1.7532
upperneck 0.442396 -6.11818 3.39244
head 2.50941 -2.96378 0.407987
rclavicle -2.38542e-015 -5.56597e-015
rhumerus 60.5189 7.93547 -42.8998
rradius 47.0419
rwrist -2.30204
rhand -18.2989 0.524471
rfingers 7.12502
rthumb 7.98189 -29.3048
lclavicle -2.38542e-015 -5.56597e-015
lhumerus -22.6565 -16.0066 88.5269
lradius 18.0047
lwrist 16.8043
lhand -11.3034 -7.97913
lfingers 7.12502
lthumb 14.7282 21.4777
rfemur -0.879219 6.71202 25.3011
rtibia 27.9243
rfoot -12.459 -7.77034
rtoes -11.8076
lfemur 2.70178 5.65921 -13.3608
ltibia 23.8454
lfoot -13.7696 3.35004
ltoes -11.4892
69
root -21.8876 17.6075 -0.144613 149.712 -73.3392 -155.156
lowerback 3.97293 3.7999 8.48123
upperback 3.29827 5.22701 -1.10097
thorax 2.08511 2.79144 -5.96054
lowerneck -13.3923 -4.34659 1.73755
upperneck 0.418719 -6.33711 3.53923
head 2.51683 -3.0684 0.443275
rclavicle -2.77802e-014 1.59028e-015
rhumerus 61.4829 7.4778 -41.9818
rradius 45.3086
rwrist -2.88964
rhand -17.8641 0.131014
rfingers 7.12502
rthumb 8.40145 -29.6819
lclavicle -2.77802e-014 1.59028e-015
lhumerus -22.5014 -15.9913 88.3827
lradius 17.3809
lwrist 16.5776
lhand -11.336 -7.65218
lfingers 7.12502
lthumb 14.6968 21.8069
rfemur -0.838612 6.58079 25.2762
rtibia 27.9248
rfoot -12.4663 -7.80885
rtoes -11.8939
lfemur 2.68794 5.65248 -13.3633
ltibia 23.8814
lfoot -13.7609 3.22925
ltoes -11.712
70
root -21.8975 17.6063 -0.140165 149.321 -73.4844 -154.751
lowerback 3.98289 3.90886 8.54712
upperback 3.27719 5.37802 -1.21367
thorax 2.10134 2.8711 -6.11527
lowerneck -13.4463 -4.51391 1.74149
upperneck 0.390764 -6.5707 3.69165
head 2.5251 -3.18017 0.475742
rclavicle -3.3197e-014 1.74931e-014
rhumerus 62.3656 6.9994 -41.1115
rradius 43.5463
rwrist -3.46657
rhand -17.4113 -0.172062
rfingers 7.12502
rthumb 8.83841 -29.967
lclavicle -3.3197e-014 1.74931e-014
lhumerus -22.3058 -15.8832 88.2011
lradius 16.7211
lwrist 16.2251
lhand -11.3364 -7.35224
lfingers 7.12502
lthumb 14.6964 22.1069
rfemur -0.797762 6.50634 25.2992
rtibia 27.9177
rfoot -12.4883 -7.91495
rtoes -11.9705
lfemur 2.66117 5.60506 -13.3364
ltibia 23.9282
lfoot -13.7669 3.1077
ltoes -11.758
71
root -21.9075 17.6055 -0.135262 149.045 -73.6638 -154.458
lowerback 3.97726 4.01619 8.57001
upperback 3.25792 5.52445 -1.33953
thorax 2.1252 2.94818 -6.25849
lowerneck -13.4873 -4.68003 1.75863
upperneck 0.339072 -6.80265 3.82356
head 2.52182 -3.29265 0.500041
rclavicle -1.16786e-014 4.77083e-015
rhumerus 63.1728 6.527 -40.2934
rradius 41.8603
rwrist -4.12091
rhand -16.8668 -0.466893
rfingers 7.12502
rthumb 9.36385 -30.2389
lclavicle -1.16786e-014 4.77083e-015
lhumerus -22.1191 -15.808 88.0314
lradius 16.0494
lwrist 15.8402
lhand -11.3971 -7.09732
lfingers 7.12502
lthumb 14.638 22.366
rfemur -0.763358 6.38488 25.2577
rtibia 27.9105
rfoot -12.4995 -7.96245
rtoes -11.9796
lfemur 2.62413 5.5157 -13.3745
ltibia 23.9736
lfoot -13.7766 3.03268
ltoes -11.8167
72
root -21.917 17.605 -0.130814 148.622 -73.8255 -154.024
lowerback 3.99061 4.12001 8.61823
upperback 3.23789 5.66808 -1.44297
thorax 2.13827 3.02345 -6.39387
lowerneck -13.534 -4.85568 1.75292
upperneck 0.296798 -7.04458 3.9664
head 2.52461 -3.40944 0.530708
rclavicle -8.84592e-015 7.95139e-015
rhumerus 63.9074 6.06582 -39.5715
rradius 40.2113
rwrist -4.62021
rhand -16.2184 -0.807407
rfingers 7.12502
rthumb 9.9895 -30.5504
lclavicle -8.84592e-015 7.95139e-015
lhumerus -21.973 -15.7854 87.8793
lradius 15.4255
lwrist 15.4925
lhand -11.4301 -6.89244
lfingers 7.12502
lthumb 14.6062 22.5732
rfemur -0.718938 6.29956 25.2756
rtibia 27.9013
rfoot -12.5249 -8.06904
rtoes -12.0241
lfemur 2.59246 5.48698 -13.3497
ltibia 24.0224
lfoot -13.7819 2.89454
ltoes -12.0747
73
root -21.9265 17.6048 -0.126938 148.187 -74.026 -153.583
lowerback 3.99795 4.21416 8.63733
upperback 3.22051 5.79743 -1.55637
thorax 2.15362 3.09129 -6.52304
lowerneck -13.5576 -5.02469 1.79106
upperneck 0.228921 -7.28247 4.09388
head 2.51215 -3.52578 0.550216
rclavicle -7.60351e-015 -7.95139e-015
rhumerus 64.5725 5.61891 -38.901
rradius 38.5507
rwrist -4.8712
rhand -15.5679 -1.12548
rfingers 7.12502
rthumb 10.617 -30.8373
lclavicle -7.60351e-015 -7.95139e-015
lhumerus -21.8371 -15.7648 87.7226
lradius 14.8109
lwrist 15.1269
lhand -11.5261 -6.72394
lfingers 7.12502
lthumb 14.5137 22.7484
rfemur -0.668269 6.17655 25.2719
rtibia 27.8911
rfoot -12.5383 -8.17695
rtoes -12.1257
lfemur 2.56018 5.42705 -13.3422
ltibia 24.0697
lfoot -13.775 2.752
ltoes -12.1552
